<svg width="256" height="256" viewBox="0 0 256 256" fill="none" xmlns="http://www.w3.org/2000/svg">
<rect width="256" height="256" fill="#012F5F" style="fill:#012F5F;fill:color(display-p3 0.0039 0.1843 0.3725);fill-opacity:1;"/>
<path d="M57 154.843V174.191C57 179.1 60.9797 183.08 65.8889 183.08H83.5367C86.4074 183.08 89.1014 181.694 90.7699 179.358L118.786 140.136C120.454 137.8 123.148 136.413 126.019 136.413H128.111C133.02 136.413 137 140.393 137 145.302V169.747C137 174.656 140.98 178.635 145.889 178.635H188.111C193.02 178.635 197 174.656 197 169.747V134.191C197 129.282 193.02 125.302 188.111 125.302H152.556C147.646 125.302 143.667 121.322 143.667 116.413V80.8576C143.667 75.9484 139.687 71.9688 134.778 71.9688H119.323C116.469 71.9688 113.788 73.3394 112.117 75.6533L58.6829 149.639C57.5888 151.153 57 152.974 57 154.843Z" fill="#E1236C" style="fill:#E1236C;fill:color(display-p3 0.8824 0.1373 0.4235);fill-opacity:1;"/>
<rect x="160.333" y="71.9688" width="35.5556" height="35.5556" rx="8.88889" fill="#E1236C" style="fill:#E1236C;fill:color(display-p3 0.8824 0.1373 0.4235);fill-opacity:1;"/>
</svg>
