<svg width="2308" height="638" viewBox="0 0 2308 638" fill="none" xmlns="http://www.w3.org/2000/svg">
<g clip-path="url(#clip0_7590_49498)">
<path d="M2307.5 637.287H0V577.659H2307.5V637.287ZM274.013 68.207H73.5049V184.633H245.398V249.902H73.5049V435.127H0V0H274.013V68.207ZM504.761 435.127H430.673V0H504.761V435.127ZM769.32 368.094H979.474V435.127H695.817V0H769.32V368.094ZM1376.92 68.207H1242.86V435.127H1169.35V68.207H1035.29V0H1376.92V68.207ZM1824.36 68.207H1605.04V176.404H1766.21V241.669H1605.04V368.094H1824.36V435.127H1531.53V0H1824.36V68.207ZM2137.96 0C2241.45 0 2301.43 41.7497 2301.43 130.536C2301.43 199.922 2265.56 239.32 2205 254.02L2307.3 435.127H2228.52L2130.91 263.429H2054.46V435.127H1982.14V0H2137.96ZM2054.46 199.337H2135.02C2196.17 199.337 2229.11 184.046 2229.11 132.3C2229.11 82.3221 2196.76 67.0342 2134.43 67.0342H2054.46V199.337Z" fill="#002F5F" style="fill:#002F5F;fill:color(display-p3 0.0000 0.1843 0.3725);fill-opacity:1;"/>
</g>
<defs>
<clipPath id="clip0_7590_49498">
<rect width="2307.5" height="637.287" fill="white" style="fill:white;fill-opacity:1;"/>
</clipPath>
</defs>
</svg>
